<?xml version="1.0" encoding="UTF-8" ?>
<!DOCTYPE svg PUBLIC "-//W3C//DTD SVG 1.1//EN" "http://www.w3.org/Graphics/SVG/1.1/DTD/svg11.dtd">
<svg width="736pt" height="736pt" viewBox="0 0 736 736" version="1.1" xmlns="http://www.w3.org/2000/svg">
<g id="#010318ff">
</g>
<g id="#388e3cff">
<path fill="#388e3c" opacity="1.00" d=" M 234.80 183.79 C 241.56 176.53 255.27 178.56 259.43 187.65 C 262.09 192.04 261.13 197.21 259.77 201.84 C 264.20 207.20 269.73 211.52 274.35 216.71 C 275.57 217.81 275.36 219.48 275.28 220.96 C 274.01 232.95 271.51 244.83 270.76 256.88 C 328.52 314.89 386.56 372.64 444.31 430.67 C 448.20 434.76 451.91 439.03 456.12 442.80 C 461.06 447.22 465.33 452.31 470.08 456.92 C 494.15 480.82 517.98 504.97 542.08 528.83 C 544.16 530.97 545.45 533.69 546.64 536.39 C 548.83 541.53 551.52 546.48 553.01 551.89 C 544.69 544.60 537.54 536.11 529.49 528.55 C 439.94 439.00 350.29 349.53 260.84 259.89 C 262.24 248.56 263.83 237.26 265.47 225.96 C 265.61 224.09 266.19 221.79 264.58 220.36 C 260.97 216.63 257.47 212.78 253.61 209.31 C 248.38 209.77 242.62 211.42 237.91 208.20 C 229.34 203.50 227.88 190.53 234.80 183.79 M 244.47 188.53 C 240.50 189.17 238.08 193.63 239.87 197.27 C 241.64 202.69 251.72 202.02 251.83 195.91 C 253.11 191.62 248.69 187.34 244.47 188.53 Z" />
<path fill="#388e3c" opacity="1.00" d=" M 330.48 224.50 C 332.09 223.50 334.16 223.99 335.97 223.81 C 359.60 224.04 383.23 223.60 406.84 223.98 C 421.77 256.60 436.08 289.53 450.83 322.25 C 472.41 370.63 494.05 418.99 515.65 467.36 C 518.61 473.49 521.67 479.61 523.77 486.10 C 521.80 484.83 519.95 483.38 518.37 481.64 C 510.40 472.95 501.58 465.08 493.47 456.52 C 435.48 398.51 377.46 340.53 319.45 282.54 C 312.87 276.28 306.87 269.39 299.97 263.50 C 295.14 264.97 289.68 265.80 285.13 263.07 C 276.14 258.49 274.87 244.77 282.09 238.06 C 287.98 232.80 297.80 233.02 303.52 238.45 C 306.80 241.64 308.74 246.41 307.98 251.00 C 307.79 252.94 307.37 254.86 307.40 256.82 C 308.56 259.63 311.09 261.55 313.19 263.64 C 316.54 254.77 320.73 246.26 324.52 237.58 C 326.58 233.25 328.04 228.63 330.48 224.50 M 290.40 243.54 C 285.36 245.09 284.82 253.00 289.69 255.12 C 293.85 257.60 299.83 253.98 298.86 249.02 C 299.04 244.75 294.15 241.98 290.40 243.54 Z" />
<path fill="#388e3c" opacity="1.00" d=" M 227.43 253.32 C 234.73 247.92 246.51 250.37 250.35 258.84 C 253.09 263.21 251.94 268.29 250.62 272.90 C 254.86 279.04 261.23 283.47 266.13 289.12 C 265.61 299.16 263.39 309.03 262.44 319.04 C 262.14 320.58 263.48 321.58 264.38 322.62 C 311.89 370.11 359.30 417.70 406.81 465.19 C 424.05 482.95 441.50 500.50 459.21 517.80 C 466.76 524.26 472.99 532.07 480.40 538.69 C 483.87 541.84 487.14 545.21 490.45 548.53 C 492.86 550.99 495.78 553.16 497.05 556.49 C 491.35 556.72 485.66 556.47 479.97 556.66 C 477.99 556.57 475.86 556.92 474.02 556.08 C 470.37 548.76 469.10 539.92 462.93 534.08 C 447.19 518.47 431.52 502.80 415.99 486.99 C 414.56 485.16 412.12 485.37 410.06 485.32 C 370.52 485.53 330.97 485.17 291.44 485.52 C 283.14 504.67 275.23 523.99 267.30 543.31 C 265.43 547.73 263.95 552.33 261.64 556.56 C 235.43 556.66 209.20 556.73 182.98 556.57 C 183.30 555.36 183.58 554.16 183.96 552.99 C 208.01 499.07 232.09 445.16 256.07 391.21 C 258.52 384.76 262.40 378.87 264.04 372.14 C 259.79 366.76 255.09 361.54 249.65 357.37 C 245.85 357.34 242.06 358.85 238.27 357.93 C 232.87 356.57 228.51 352.03 227.02 346.72 C 225.67 341.32 227.28 335.21 231.50 331.49 C 238.29 324.74 251.36 326.82 255.55 335.50 C 258.16 339.64 257.18 344.56 256.51 349.09 C 256.06 351.12 258.17 352.32 259.31 353.67 C 262.50 356.44 264.91 360.05 268.38 362.50 C 275.29 363.21 282.10 360.83 288.99 360.39 C 276.96 348.19 264.97 335.95 252.82 323.88 C 253.39 314.17 255.28 304.60 256.48 294.96 C 257.15 292.29 254.63 290.64 253.08 288.93 C 249.99 286.04 247.29 282.73 243.88 280.20 C 238.69 281.33 232.75 282.38 228.19 278.86 C 219.23 273.67 218.84 259.01 227.43 253.32 M 234.64 259.73 C 231.43 261.05 228.98 264.94 230.76 268.30 C 232.38 273.07 239.68 273.46 242.05 269.12 C 245.02 264.59 239.77 257.64 234.64 259.73 M 240.50 336.60 C 237.06 337.49 234.48 341.46 236.07 344.88 C 237.39 350.43 246.69 350.51 247.96 344.95 C 249.62 340.51 245.25 334.97 240.50 336.60 M 327.47 399.19 C 323.65 408.26 319.74 417.31 316.16 426.49 C 329.09 426.60 342.03 426.51 354.96 426.55 C 353.17 424.19 351.11 422.07 348.97 420.04 C 341.76 413.14 335.13 405.60 327.47 399.19 Z" />
<path fill="#388e3c" opacity="1.00" d=" M 277.61 312.81 C 281.06 305.56 290.73 302.59 297.84 306.07 C 303.67 308.67 307.47 315.35 306.45 321.68 C 306.14 323.67 305.90 325.67 305.51 327.64 C 344.06 366.37 382.80 404.93 421.34 443.66 C 433.75 456.24 446.76 468.23 458.71 481.26 C 468.22 490.14 476.40 500.36 486.42 508.71 C 497.61 519.82 508.84 530.89 519.58 542.44 C 523.77 547.17 528.99 550.96 532.59 556.21 C 528.07 556.36 522.31 557.96 518.93 554.00 C 505.70 540.58 492.26 527.37 478.96 514.03 C 464.53 500.16 451.04 485.32 436.27 471.81 C 392.87 427.83 349.16 384.14 305.38 340.53 C 303.25 338.43 301.39 335.93 298.74 334.46 C 294.62 334.72 290.40 336.25 286.34 334.70 C 277.45 332.24 273.14 320.73 277.61 312.81 M 288.45 314.39 C 284.51 316.24 283.93 322.12 286.98 325.02 C 290.48 327.80 296.41 326.02 297.48 321.57 C 298.96 316.62 292.99 311.85 288.45 314.39 Z" />
</g>
</svg>
